<svg width="32" height="32" viewBox="0 0 32 32" fill="none" xmlns="http://www.w3.org/2000/svg">
<g id="Media / Icon">
<path id="Icon" fill-rule="evenodd" clip-rule="evenodd" d="M12.75 6.25C9.16015 6.25 6.25 9.16015 6.25 12.75C6.25 16.3399 9.16015 19.25 12.75 19.25C16.3399 19.25 19.25 16.3399 19.25 12.75C19.25 9.16015 16.3399 6.25 12.75 6.25ZM3 12.75C3 7.36522 7.36522 3 12.75 3C18.1348 3 22.5 7.36522 22.5 12.75C22.5 14.8557 21.8325 16.8055 20.6975 18.3994L28.524 26.226C29.1587 26.8606 29.1587 27.8894 28.524 28.524C27.8894 29.1587 26.8606 29.1587 26.226 28.524L18.3994 20.6975C16.8055 21.8325 14.8557 22.5 12.75 22.5C7.36522 22.5 3 18.1348 3 12.75Z" fill="#8431E7"/>
</g>
</svg>
